<svg xmlns="http://www.w3.org/2000/svg" viewBox="138.68 244 297.63 87.03"> <g transform="rotate(0 182.16753852870565 287.5)"><svg xmlns="http://www.w3.org/2000/svg" xmlns:xlink="http://www.w3.org/1999/xlink" viewBox="0 0 47.48999786376953 47.52000045776367" height="87" width="86.9450624089738" y="244" x="138.69500732421875" preserveAspectRatio="xMinYMin" style="overflow: visible;"><linearGradient id="linear-gradient" x1="-53.38" y1="2.01" x2="63.59" y2="2.01" gradientUnits="userSpaceOnUse" style=""><stop offset="0" stop-color="#fab2ff" style="--darkreader-inline-stopcolor: #5b0061;" data-darkreader-inline-stopcolor=""></stop><stop offset="0.99" stop-color="#1904e5" style="--darkreader-inline-stopcolor: #1403b7;" data-darkreader-inline-stopcolor=""></stop></linearGradient><linearGradient id="linear-gradient-2" x1="-53.38" y1="6.67" x2="63.59" y2="6.67" xlink:href="#linear-gradient" style=""></linearGradient><linearGradient id="linear-gradient-3" x1="-53.38" y1="13.78" x2="63.59" y2="13.78" xlink:href="#linear-gradient" style=""></linearGradient><linearGradient id="linear-gradient-4" x1="-53.38" y1="22.58" x2="63.59" y2="22.58" xlink:href="#linear-gradient" style=""></linearGradient><linearGradient id="linear-gradient-5" x1="-53.38" y1="31.34" x2="63.59" y2="31.34" xlink:href="#linear-gradient" style=""></linearGradient><linearGradient id="linear-gradient-6" x1="-53.38" y1="38.91" x2="63.59" y2="38.91" xlink:href="#linear-gradient" style=""></linearGradient><linearGradient id="linear-gradient-7" x1="-53.38" y1="44.21" x2="63.59" y2="44.21" xlink:href="#linear-gradient" style=""></linearGradient><linearGradient id="linear-gradient-15" x1="-0.97" y1="1.7" x2="46.54" y2="1.7" gradientUnits="userSpaceOnUse" style=""><stop offset="0" stop-color="#69ff97" style="--darkreader-inline-stopcolor: #008d44;" data-darkreader-inline-stopcolor=""></stop><stop offset="0.99" stop-color="#00e4ff" style="--darkreader-inline-stopcolor: #00b6cc;" data-darkreader-inline-stopcolor=""></stop></linearGradient><linearGradient id="linear-gradient-16" x1="-0.97" y1="5.1" x2="46.54" y2="5.1" xlink:href="#linear-gradient-15" style=""></linearGradient><linearGradient id="linear-gradient-17" x1="-0.97" y1="0.78" x2="46.54" y2="0.78" xlink:href="#linear-gradient-15" style=""></linearGradient><linearGradient id="linear-gradient-18" x1="-0.97" y1="11.54" x2="46.54" y2="11.54" xlink:href="#linear-gradient-15" style=""></linearGradient><linearGradient id="linear-gradient-19" x1="-0.97" y1="19.82" x2="46.54" y2="19.82" xlink:href="#linear-gradient-15" style=""></linearGradient><linearGradient id="linear-gradient-20" x1="-0.97" y1="28.9" x2="46.52" y2="28.9" xlink:href="#linear-gradient-15" style=""></linearGradient><linearGradient id="linear-gradient-21" x1="-0.97" y1="36.95" x2="46.54" y2="36.95" xlink:href="#linear-gradient-15" style=""></linearGradient><linearGradient id="linear-gradient-22" x1="-0.97" y1="43.09" x2="46.54" y2="43.09" xlink:href="#linear-gradient-15" style=""></linearGradient><linearGradient id="linear-gradient-23" x1="-0.97" y1="46.57" x2="46.54" y2="46.57" xlink:href="#linear-gradient-15" style=""></linearGradient><path id="Layer_1-2" dataName="Layer 1" class="cls-1" d="M14.74,1.77a25.78,25.78,0,0,0-3.83,2l-.16.1c3.55-2.09,9.93-2.37,13-2.38V.13A27.62,27.62,0,0,0,18,.71,24.53,24.53,0,0,0,14.74,1.77Z" style="fill: url(#linear-gradient);"></path><path id="Layer_1-2" dataName="Layer 1" class="cls-2" d="M7.71,6.24A23.8,23.8,0,0,0,5.05,9.12c-.33.45-.78,1-1.08,1.5C6.89,7,17.45,6.08,23.73,6.08V2.72C12.71,2.8,9,5.13,8.14,5.86Z" style="fill: url(#linear-gradient-2);"></path><path id="Layer_1-2" dataName="Layer 1" class="cls-3" d="M2.4,13.35c-.34.76-.78,1.77-1.07,2.55-.31,1-.69,2.4-.92,3.45C1.77,15.18,13,13.29,23.73,13.24v-5C12.52,8.29,4.18,10.29,2.4,13.35Z" style="fill: url(#linear-gradient-3);"></path><path id="Layer_1-2" dataName="Layer 1" class="cls-4" d="M0,22.58,0,23.7A26.09,26.09,0,0,0,.59,29h0c-.37-4.3,11.35-6.8,23.14-6.81v-6.1C8.51,16.23.29,19.42,0,22.58Z" style="fill: url(#linear-gradient-4);"></path><path id="Layer_1-2" dataName="Layer 1" class="cls-5" d="M1.47,32l.3.77a24.6,24.6,0,0,0,1.76,3.45l.88,1.32C2.38,34,11,31.09,23.73,31V25.16C10,25.26.45,28.15,1.47,32Z" style="fill: url(#linear-gradient-5);"></path><path id="Layer_1-2" dataName="Layer 1" class="cls-6" d="M6.42,40c.66.65,1.55,1.49,2.24,2.1a23.82,23.82,0,0,0,2.83,2c-3.5-2.34,1.26-4,4.63-4.66a41.68,41.68,0,0,1,7.61-.64v-5C11.74,33.86,3.68,36.71,6.42,40Z" style="fill: url(#linear-gradient-6);"></path><path id="Layer_1-2" dataName="Layer 1" class="cls-7" d="M13.22,44.81a5,5,0,0,0,1.44.86l.44.17c1.31.48,1.36.5,2.18.74,1.08.28,1.08.28,1.65.4.9.18.9.18,1.36.24l1.17.15c.72.06.72.06,1.07.07l1,0h.17V41C15.58,41,11.38,43.05,13.22,44.81Z" style="fill: url(#linear-gradient-7);"></path><path id="Layer_1-2" dataName="Layer 1" class="cls-1" d="M36.58,3.78a26.28,26.28,0,0,0-3.83-2A24.53,24.53,0,0,0,29.51.71,27.62,27.62,0,0,0,23.76.13V1.5c3,0,9.43.29,13,2.38Z" style="fill: url(#linear-gradient);"></path><path id="Layer_1-2" dataName="Layer 1" class="cls-2" d="M43.52,10.62c-.31-.46-.76-1-1.08-1.5a23.22,23.22,0,0,0-2.67-2.88l-.42-.38c-.88-.73-4.58-3.06-15.59-3.14V6.08C30,6.08,40.6,7,43.52,10.62Z" style="fill: url(#linear-gradient-2);"></path><path id="Layer_1-2" dataName="Layer 1" class="cls-3" d="M47.08,19.35c-.24-1.05-.61-2.43-.92-3.45-.29-.78-.73-1.79-1.07-2.55C43.3,10.29,35,8.29,23.76,8.21v5C34.51,13.29,45.71,15.18,47.08,19.35Z" style="fill: url(#linear-gradient-3);"></path><path id="Layer_1-2" dataName="Layer 1" class="cls-4" d="M47.46,22.58c-.26-3.16-8.48-6.35-23.7-6.46v6.1c11.79,0,23.51,2.51,23.13,6.81h0a26.09,26.09,0,0,0,.59-5.32Z" style="fill: url(#linear-gradient-4);"></path><path id="Layer_1-2" dataName="Layer 1" class="cls-5" d="M23.76,25.16V31c12.71.08,21.34,3,19.31,6.5L44,36.19a23.34,23.34,0,0,0,1.77-3.45L46,32C47,28.15,37.51,25.26,23.76,25.16Z" style="fill: url(#linear-gradient-5);"></path><path id="Layer_1-2" dataName="Layer 1" class="cls-6" d="M23.76,33.77v5a41.75,41.75,0,0,1,7.61.64c3.36.63,8.13,2.32,4.63,4.66a23.91,23.91,0,0,0,2.82-2c.7-.61,1.59-1.45,2.24-2.1C43.8,36.71,35.75,33.86,23.76,33.77Z" style="fill: url(#linear-gradient-6);"></path><path id="Layer_1-2" dataName="Layer 1" class="cls-7" d="M23.76,41v6.52h.17l1,0c.36,0,.36,0,1.07-.07.4,0,.4,0,1.18-.15.46-.06.46-.06,1.35-.24.58-.12.58-.12,1.66-.4.82-.24.87-.26,2.18-.74l.43-.17a5,5,0,0,0,1.45-.86C36.1,43.05,31.91,41,23.76,41Z" style="fill: url(#linear-gradient-7);"></path><path id="Layer_1-2" dataName="Layer 1" class="cls-8" d="M29.88,1.7a.57.57,0,0,0-.16-.4h0a1,1,0,0,0-.24-.22C28.8.59,27,0,24,0h-.38c-3,0-4.83.58-5.51,1.06a1.21,1.21,0,0,0-.23.22h0a.57.57,0,0,0-.16.4c0,1,2.84,1.69,6,1.7h.28C27,3.39,29.91,2.72,29.88,1.7Z" style="fill: url(#linear-gradient-15);"></path><path id="Layer_1-2" dataName="Layer 1" class="cls-9" d="M17.66,9c10,1.35,22.63-.86,19.83-4.49a21.53,21.53,0,0,0-5-2.46.92.92,0,0,1,.26.47c.58,2.77-12.62,3.72-17,1.23C14.42,3,14.15,1.79,17.5.84a24.19,24.19,0,0,0-2.76.93,26.46,26.46,0,0,0-3.83,2l-.16.1L10.59,4C8,5.93,11,8.07,17.66,9Z" style="fill: url(#linear-gradient-16);"></path><path id="Layer_1-2" dataName="Layer 1" class="cls-10" d="M17.5.84,18,.71Z" style="fill: url(#linear-gradient-17);"></path><path id="Layer_1-2" dataName="Layer 1" class="cls-11" d="M9,15.44c12.42,3.77,37.72,1.28,34.59-4.75-.3-.46-.75-1-1.08-1.5s-.85-1-1.21-1.45-1-1.07-1.6-1.57c2.61,2.94-5.12,5.69-15.93,5.66-10,0-19-2.63-15.61-6l-.43.38A23.78,23.78,0,0,0,5.05,9.12c-.34.43-.76,1.05-1.08,1.5C2.64,13,6,14.53,9,15.44Z" style="fill: url(#linear-gradient-18);"></path><path id="Layer_1-2" dataName="Layer 1" class="cls-12" d="M1.34,21.53C8,27.8,47.5,28.64,47.1,19.43c-.24-1.05-.6-2.43-.92-3.46-.26-.78-.72-1.79-1-2.54.57,1.36-.32,2.63-2.64,3.76C32,22.29-.14,20.61,2.4,13.35c-.35.75-.76,1.78-1.07,2.55-.32,1-.68,2.4-.92,3.45A2.28,2.28,0,0,0,1.34,21.53Z" style="fill: url(#linear-gradient-19);"></path><path id="Layer_1-2" dataName="Layer 1" class="cls-13" d="M47.46,22.66a2.36,2.36,0,0,1-.7,1.67C41.21,30.57.86,31.63,0,22.58L0,23.7A26.54,26.54,0,0,0,.59,29h0s0,.13.05.18c3,8.09,43.2,8,46.23-.1L47.1,28a24.4,24.4,0,0,0,.39-4.26Z" style="fill: url(#linear-gradient-20);"></path><path id="Layer_1-2" dataName="Layer 1" class="cls-14" d="M1.47,32l.3.77a23.86,23.86,0,0,0,1.76,3.45l.88,1.32c5,5.85,33.53,5.9,38.61.07.45-.66,1-1.56,1.43-2.24.53-1,1.11-2.29,1.53-3.29C42.8,39.56,5.36,39.49,1.47,32Z" style="fill: url(#linear-gradient-21);"></path><path id="Layer_1-2" dataName="Layer 1" class="cls-15" d="M6.42,40c.65.65,1.55,1.49,2.24,2.1a23.8,23.8,0,0,0,2.83,2c5.21,2.86,19.14,2.89,24.42,0l.44-.27a24.25,24.25,0,0,0,3.23-2.44h0c.45-.39,1-1,1.41-1.37C36.51,44.46,12.3,45.29,6.42,40Z" style="fill: url(#linear-gradient-22);"></path><path id="Layer_1-2" dataName="Layer 1" class="cls-16" d="M14.66,45.67l.44.17a21.3,21.3,0,0,0,2.18.74c.58.16.64.17,1.65.4.47.1.5.1,1.36.24l1.17.15,1.07.08,1,0,1,0,1.09-.06,1.22-.14a24,24,0,0,0,5.57-1.45l.28-.11C28.14,47.46,19.35,47.44,14.66,45.67Z" style="fill: url(#linear-gradient-23);"></path></svg></g> <svg xmlns="http://www.w3.org/2000/svg" y="266.905" viewBox="2.809999942779541 14.630000114440918 194.5800018310547 57.63999557495117" x="241.72500732421875" height="57.63999557495117" width="194.5800018310547" style="overflow: visible;"><g fill="#111111" fill-opacity="1" style="--darkreader-inline-fill: #0d0e0e;" data-darkreader-inline-fill=""><path d="M17.05 58.13Q13.04 58.13 9.82 56.76Q6.60 55.38 4.73 52.80Q2.86 50.22 2.81 46.70L2.81 46.70L11.05 46.70Q11.22 49.06 12.73 50.44Q14.24 51.81 16.89 51.81L16.89 51.81Q19.58 51.81 21.12 50.52Q22.66 49.23 22.66 47.13L22.66 47.13Q22.66 45.43 21.61 44.33Q20.57 43.23 19.00 42.60Q17.43 41.97 14.69 41.20L14.69 41.20Q10.95 40.09 8.61 39.02Q6.27 37.95 4.59 35.78Q2.92 33.61 2.92 29.98L2.92 29.98Q2.92 26.57 4.62 24.03Q6.33 21.51 9.40 20.16Q12.48 18.81 16.45 18.81L16.45 18.81Q22.39 18.81 26.10 21.70Q29.81 24.59 30.20 29.75L30.20 29.75L21.73 29.75Q21.61 27.77 20.05 26.48Q18.48 25.19 15.89 25.19L15.89 25.19Q13.64 25.19 12.29 26.34Q10.95 27.50 10.95 29.70L10.95 29.70Q10.95 31.24 11.96 32.26Q12.98 33.27 14.49 33.91Q16.00 34.54 18.75 35.36L18.75 35.36Q22.50 36.47 24.86 37.56Q27.23 38.66 28.93 40.86Q30.64 43.06 30.64 46.64L30.64 46.64Q30.64 49.72 29.04 52.36Q27.45 55 24.36 56.57Q21.29 58.13 17.05 58.13L17.05 58.13ZM53.45 26.84Q56.91 26.84 59.61 28.35Q62.30 29.86 63.82 32.81Q65.33 35.75 65.33 39.88L65.33 39.88L65.33 57.75L57.63 57.75L57.63 40.92Q57.63 37.29 55.81 35.34Q54 33.39 50.86 33.39L50.86 33.39Q47.67 33.39 45.83 35.34Q43.99 37.29 43.99 40.92L43.99 40.92L43.99 57.75L36.29 57.75L36.29 17.05L43.99 17.05L43.99 31.07Q45.47 29.09 47.95 27.97Q50.42 26.84 53.45 26.84L53.45 26.84ZM75.55 23.65Q73.52 23.65 72.17 22.36Q70.82 21.06 70.82 19.14L70.82 19.14Q70.82 17.21 72.17 15.92Q73.52 14.63 75.55 14.63L75.55 14.63Q77.58 14.63 78.93 15.92Q80.28 17.21 80.28 19.14L80.28 19.14Q80.28 21.06 78.93 22.36Q77.58 23.65 75.55 23.65L75.55 23.65ZM71.64 27.28L79.34 27.28L79.34 57.75L71.64 57.75L71.64 27.28ZM93.64 31.68Q95.12 29.59 97.73 28.19Q100.34 26.79 103.70 26.79L103.70 26.79Q107.61 26.79 110.77 28.71Q113.93 30.64 115.77 34.18Q117.62 37.73 117.62 42.41L117.62 42.41Q117.62 47.08 115.77 50.68Q113.93 54.28 110.77 56.27Q107.61 58.24 103.70 58.24L103.70 58.24Q100.34 58.24 97.79 56.87Q95.23 55.49 93.64 53.41L93.64 53.41L93.64 72.27L85.94 72.27L85.94 27.28L93.64 27.28L93.64 31.68ZM109.75 42.41Q109.75 39.66 108.62 37.65Q107.50 35.64 105.65 34.59Q103.81 33.55 101.66 33.55L101.66 33.55Q99.58 33.55 97.73 34.62Q95.89 35.70 94.76 37.73Q93.64 39.77 93.64 42.52L93.64 42.52Q93.64 45.27 94.76 47.30Q95.89 49.34 97.73 50.41Q99.58 51.48 101.66 51.48L101.66 51.48Q103.81 51.48 105.65 50.38Q107.50 49.28 108.62 47.24Q109.75 45.21 109.75 42.41L109.75 42.41ZM139.11 26.84Q144.56 26.84 147.91 30.28Q151.27 33.72 151.27 39.88L151.27 39.88L151.27 57.75L143.56 57.75L143.56 40.92Q143.56 37.29 141.75 35.34Q139.94 33.39 136.80 33.39L136.80 33.39Q133.61 33.39 131.77 35.34Q129.93 37.29 129.93 40.92L129.93 40.92L129.93 57.75L122.23 57.75L122.23 27.28L129.93 27.28L129.93 31.07Q131.47 29.09 133.86 27.97Q136.25 26.84 139.11 26.84L139.11 26.84ZM161.48 23.65Q159.45 23.65 158.10 22.36Q156.75 21.06 156.75 19.14L156.75 19.14Q156.75 17.21 158.10 15.92Q159.45 14.63 161.48 14.63L161.48 14.63Q163.52 14.63 164.87 15.92Q166.22 17.21 166.22 19.14L166.22 19.14Q166.22 21.06 164.87 22.36Q163.52 23.65 161.48 23.65L161.48 23.65ZM157.58 27.28L165.28 27.28L165.28 57.75L157.58 57.75L157.58 27.28ZM197.39 57.75L188.70 57.75L182.43 48.29L176.88 57.75L168.63 57.75L178.58 42.46L168.51 27.28L177.20 27.28L183.42 36.69L189.03 27.28L197.28 27.28L187.27 42.46L197.39 57.75Z" transform="translate(0, 0)"></path></g></svg></svg>